<svg width="22" height="22" viewBox="0 0 22 22" fill="none" xmlns="http://www.w3.org/2000/svg">
<path d="M18.9026 7.74579C17.9401 3.51079 14.2459 1.60413 11.0009 1.60413H10.9918C7.75594 1.60413 4.05261 3.50163 3.09011 7.73663C2.01761 12.4666 4.91428 16.4725 7.53594 18.9933C8.46519 19.8927 9.70771 20.3956 11.0009 20.3958C12.2476 20.3958 13.4943 19.9283 14.4568 18.9933C17.0784 16.4725 19.9751 12.4758 18.9026 7.74579ZM11.0009 12.3383C10.6218 12.3383 10.2463 12.2636 9.89594 12.1185C9.54562 11.9734 9.2273 11.7607 8.95917 11.4926C8.69104 11.2244 8.47835 10.9061 8.33324 10.5558C8.18813 10.2055 8.11344 9.82998 8.11344 9.45079C8.11344 9.0716 8.18813 8.69612 8.33324 8.34579C8.47835 7.99547 8.69104 7.67715 8.95917 7.40902C9.2273 7.14089 9.54562 6.9282 9.89594 6.78309C10.2463 6.63798 10.6218 6.56329 11.0009 6.56329C11.7668 6.56329 12.5012 6.86751 13.0427 7.40902C13.5842 7.95053 13.8884 8.68498 13.8884 9.45079C13.8884 10.2166 13.5842 10.9511 13.0427 11.4926C12.5012 12.0341 11.7668 12.3383 11.0009 12.3383Z" fill="#1B4C20"/>
</svg>
