<svg width="26" height="24" viewBox="0 0 26 24" fill="none" xmlns="http://www.w3.org/2000/svg">
<path d="M12.7743 14.33C11.401 14.33 10.2939 13.29 10.2939 12C10.2939 10.71 11.401 9.66998 12.7743 9.66998C14.1475 9.66998 15.2546 10.71 15.2546 12C15.2546 13.29 14.1475 14.33 12.7743 14.33Z" fill="black"/>
<path fill-rule="evenodd" clip-rule="evenodd" d="M12.7742 4.31C9.2081 4.31 5.80166 5.84999 3.43843 8.52999C1.68198 10.51 1.68198 13.49 3.43843 15.47C5.80166 18.15 9.2081 19.69 12.7742 19.69C16.3404 19.69 19.7468 18.15 22.1207 15.47C23.8665 13.49 23.8665 10.51 22.1207 8.52999C19.7468 5.84999 16.3404 4.31 12.7742 4.31ZM8.69714 12C8.69714 9.89 10.5281 8.16999 12.7742 8.16999C15.0204 8.16999 16.8513 9.89 16.8513 12C16.8513 14.11 15.0204 15.83 12.7742 15.83C10.5281 15.83 8.69714 14.11 8.69714 12Z" fill="#1B4C20"/>
</svg>
